<?xml version="1.0"?>
<svg version="1.1" id="圖層_1" xmlns="http://www.w3.org/2000/svg" x="0" y="0" viewBox="0 0 100 100" xml:space="preserve"><circle cx="50" cy="50" r="40" fill="none" stroke="#333" stroke-width="8" stroke-miterlimit="10"/><path d="M60.6 29.5L50 40.1 39.4 29.5c-2.7-2.7-7.1-2.7-9.9 0-2.7 2.7-2.7 7.1 0 9.9L40.1 50 29.5 60.6c-2.7 2.7-2.7 7.1 0 9.9s7.1 2.7 9.9 0L50 59.9l10.6 10.6c2.7 2.7 7.1 2.7 9.9 0 2.7-2.7 2.7-7.1 0-9.9L59.9 50l10.6-10.6c2.7-2.7 2.7-7.1 0-9.9s-7.2-2.7-9.9 0z" fill="#e15b64"/><metadata xmlns:d="https://loading.io/stock/"><d:name>close</d:name><d:tags>close,reject,off,disable,remove,delete,cancel,drop,collapse</d:tags><d:license>by</d:license><d:slug>qeb1ge</d:slug></metadata></svg>